<svg width="658" height="144" viewBox="0 0 658 144" fill="none" xmlns="http://www.w3.org/2000/svg">
<g clip-path="url(#clip0_315_152)">
<path fill-rule="evenodd" clip-rule="evenodd" d="M59.149 57.7997C59.6275 60.5374 57.0685 63.1799 54.3244 63.6567C51.5788 64.1334 47.7768 63.7086 47.1709 60.9959C44.4595 48.8562 42.8517 35.5333 42.2527 23.7504C42.1119 20.9764 43.7576 18.4415 46.5131 18.0387C49.2701 17.6357 52.1147 19.5155 52.2396 22.2903C52.7553 33.7558 57.0689 45.8932 59.149 57.7997Z" fill="#E9E9E9"/>
<path fill-rule="evenodd" clip-rule="evenodd" d="M75.4597 49.9827C76.135 52.6779 73.7383 55.4143 71.034 56.0893C68.3313 56.7627 64.2162 55.683 63.5409 52.9862C59.7286 37.7838 61.3581 20.6656 61.1838 5.08859C61.1521 2.30959 63.3903 0.0283692 66.1754 -0.00261404C68.9621 -0.0334392 71.2495 2.19736 71.2812 4.97637C71.4461 19.7851 71.8361 35.5312 75.4597 49.9827Z" fill="#E9E9E9"/>
<path fill-rule="evenodd" clip-rule="evenodd" d="M91.3807 50.5762C91.5614 53.3489 89.0981 56.0963 86.3177 56.2765C83.5357 56.4567 79.9596 53.1813 79.7789 50.407C78.9198 37.1759 80.4193 24.77 80.4589 11.5104C80.4669 8.733 81.8206 6.66692 84.6057 6.67483C87.3924 6.68273 88.7319 8.2145 88.7224 10.9935C88.6828 24.0254 90.5358 37.5696 91.3807 50.5762Z" fill="#E9E9E9"/>
<path fill-rule="evenodd" clip-rule="evenodd" d="M105.41 60.5869C104.501 63.2126 100.798 64.4393 98.1647 63.5335C95.5302 62.6261 93.9799 58.8638 94.8898 56.2382C97.9396 47.4269 101.024 39.6764 103.025 30.5442C103.618 27.83 106.311 26.107 109.034 26.6998C111.756 27.2925 113.484 29.9767 112.889 32.6925C110.805 42.2135 108.59 51.401 105.41 60.5869Z" fill="#E9E9E9"/>
<path fill-rule="evenodd" clip-rule="evenodd" d="M36.1468 88.4402C34.7233 84.9752 32.5215 81.8737 29.207 80.0226C26.8594 78.7121 23.5765 78.5841 22.1245 76.0264C20.3982 72.985 22.3639 68.9841 25.8655 68.5525C27.5949 68.3407 29.8442 69.2654 31.2629 69.8313C34.1416 70.979 36.8015 72.6151 39.035 74.7681C41.641 77.2784 44.2343 80.9332 45.2868 84.4298C46.2665 87.6862 46.4488 91.1387 47.3238 94.4251C48.0212 97.046 49.1419 99.5547 50.5955 101.844C57.7826 113.156 72.2493 119.055 84.949 113.769C88.0871 112.463 90.6716 110.456 93.1041 108.121C94.0903 106.89 95.0784 105.657 95.9663 104.352C99.0096 99.8867 99.8097 93.5699 98.4545 88.415C96.2378 79.9831 87.853 73.2901 78.8872 75.0858C76.8116 75.5016 74.7924 76.3979 73.0752 77.6277C69.6902 80.0527 67.2893 83.9635 67.3594 88.2063C67.4501 93.7042 71.6247 99.0994 77.4288 99.1974C80.2441 99.2449 82.2445 98.053 84.6663 96.6524C85.2256 98.1257 85.4705 99.444 85.5794 101.011C85.6127 101.491 85.5623 101.973 85.5462 102.454C85.5417 102.59 85.5539 102.976 85.3647 103.066C85.1618 103.164 84.8393 102.939 84.7022 102.854C84.2581 102.574 83.7989 102.315 83.3803 101.999C83.3045 102.612 83.1417 103.211 83.0116 103.815C82.669 105.405 81.3795 103.63 80.8676 103.04C80.6587 103.644 80.3648 104.216 80.1031 104.8C79.4136 106.338 78.4902 104.264 78.099 103.557C77.7572 104.125 77.3365 104.64 76.9456 105.176C75.9166 106.584 75.4283 104.286 75.1844 103.488C74.7161 103.989 74.1789 104.42 73.668 104.879C72.3225 106.085 72.323 103.654 72.2482 102.792C71.6661 103.2 71.029 103.522 70.413 103.877C68.7911 104.809 69.315 102.348 69.4249 101.46C68.7478 101.747 68.0333 101.937 67.3332 102.165C65.49 102.761 66.5507 100.381 66.8533 99.5057C66.1059 99.6511 65.3412 99.6907 64.5835 99.7713C62.5887 99.98 64.1751 97.7985 64.6703 96.9764C63.882 96.9638 63.0991 96.8405 62.3149 96.7583C60.25 96.5433 62.3264 94.6733 63.005 93.9461C62.2092 93.7659 61.4431 93.4734 60.6667 93.2221C58.6222 92.5629 61.1273 91.1134 61.971 90.5237C61.2042 90.1696 60.4917 89.7096 59.7595 89.2891C57.8316 88.1826 60.6802 87.2531 61.6615 86.8358C60.9614 86.3125 60.339 85.6945 59.6883 85.1112C59.4867 84.9309 58.984 84.5199 59.0443 84.1532C59.0983 83.8228 59.7254 83.6964 59.9221 83.641C60.6603 83.4324 61.3897 83.1826 62.1426 83.0356C61.5461 82.3558 61.0493 81.5955 60.5158 80.8668C60.3506 80.6407 59.9302 80.1175 60.0704 79.7586C60.1961 79.4361 60.8585 79.4409 61.0696 79.4266C61.8621 79.3745 62.6542 79.2781 63.4483 79.2907C62.9907 78.475 62.6513 77.5993 62.2682 76.7457C62.1495 76.4817 61.8367 75.862 62.0559 75.5285C62.2525 75.2297 62.9221 75.3767 63.1389 75.4067C63.9527 75.5237 64.7756 75.5949 65.577 75.7767C65.2892 74.8535 65.1343 73.8939 64.93 72.9486C64.8666 72.6562 64.6838 71.9607 64.9775 71.6698C65.241 71.409 65.8873 71.7014 66.1001 71.7789C66.8992 72.0713 67.7167 72.3211 68.489 72.6767C68.3966 71.6808 68.4463 70.6755 68.443 69.6748C68.4421 69.365 68.4067 68.6205 68.7667 68.3897C69.0896 68.1826 69.681 68.6173 69.8798 68.7406C70.6261 69.2085 71.4001 69.6353 72.1054 70.1617C72.2263 69.1326 72.4933 68.1257 72.7055 67.1124C72.7711 66.7978 72.8957 66.0375 73.3101 65.8794C73.6816 65.7387 74.1868 66.3062 74.3614 66.4738C75.0164 67.1061 75.7081 67.7052 76.3087 68.3897C76.653 67.3732 77.1402 66.4106 77.5734 65.4305C77.7076 65.1254 77.9976 64.3824 78.4509 64.3128C78.8574 64.2496 79.247 64.9309 79.3874 65.1396C79.9145 65.9189 80.4858 66.6745 80.9468 67.4949C81.5141 66.5401 82.2146 65.6707 82.8646 64.7697C83.0661 64.4899 83.5198 63.7991 83.9939 63.826C84.419 63.8497 84.6666 64.6227 84.7641 64.863C85.1295 65.7672 85.5456 66.6524 85.8354 67.5835C86.6156 66.7378 87.5122 66.0075 88.3645 65.2345C88.6286 64.9942 89.2367 64.3919 89.7111 64.5199C90.1367 64.6353 90.2207 65.4716 90.2675 65.7355C90.443 66.7299 90.6733 67.7162 90.7665 68.72C91.7385 68.0308 92.8037 67.4823 93.8333 66.8832C94.1522 66.6967 94.8976 66.2177 95.3505 66.4485C95.7566 66.6556 95.6615 67.5218 95.6518 67.7985C95.6157 68.8418 95.6364 69.8898 95.5145 70.9268C96.6471 70.4368 97.8438 70.1111 99.0154 69.7238C99.3783 69.6037 100.236 69.2781 100.645 69.6085C101.012 69.9056 100.729 70.7609 100.659 71.0407C100.398 72.0887 100.193 73.1557 99.8468 74.1785C101.099 73.9255 102.381 73.8513 103.651 73.7106C104.044 73.6663 104.983 73.5209 105.325 73.9429C105.633 74.3223 105.162 75.1285 105.032 75.3957C104.541 76.401 104.104 77.4364 103.533 78.3991C104.855 78.4102 106.173 78.5762 107.485 78.739C108.921 78.9192 109.383 79.2006 108.696 80.4526C108.445 80.911 108.129 81.3347 107.808 81.7488C107.348 82.3385 106.864 82.9107 106.356 83.4608C107.692 83.7564 108.991 84.2069 110.285 84.6527C111.7 85.1427 112.107 85.5253 111.142 86.6477C110.788 87.0587 110.378 87.4191 109.963 87.7684C109.371 88.2695 108.757 88.7453 108.124 89.1927C109.414 89.7776 110.632 90.5111 111.845 91.2414C113.173 92.0397 113.502 92.5155 112.284 93.4434C111.837 93.7849 111.344 94.0615 110.849 94.3271C110.141 94.7064 109.417 95.0558 108.68 95.3751C109.859 96.243 110.935 97.2468 112.007 98.2458C113.179 99.3381 113.41 99.8914 111.976 100.57C111.45 100.819 110.891 100.995 110.333 101.156C109.535 101.388 108.726 101.589 107.911 101.754C108.918 102.885 109.756 104.158 110.661 105.372C111.119 105.987 112.143 107.432 110.719 107.693C110.399 107.751 110.072 107.77 109.747 107.792C108.418 107.887 107.091 108.059 105.759 108.047C106.534 109.409 107.109 110.876 107.764 112.301C108.095 113.021 108.821 114.703 107.323 114.662C106.986 114.653 106.651 114.602 106.316 114.555C104.951 114.367 103.57 114.256 102.224 113.959C102.716 115.503 102.981 117.112 103.337 118.695C103.517 119.495 103.89 121.354 102.383 120.992C102.043 120.909 101.715 120.786 101.386 120.668C100.044 120.184 98.6699 119.776 97.3714 119.186C97.5364 120.857 97.4587 122.542 97.4784 124.221C97.4885 125.07 97.4654 127.032 96.0172 126.341C95.6911 126.186 95.3852 125.992 95.0781 125.8C93.8232 125.024 92.5197 124.316 91.3318 123.44C91.224 124.406 91.0701 125.367 90.8952 126.324C90.7806 126.95 90.6425 127.572 90.4641 128.183C90.2803 128.812 90.0806 129.441 89.81 130.038C89.2195 131.341 88.2134 130.249 87.5851 129.646C86.4817 128.592 85.3142 127.596 84.3 126.455C83.8725 127.742 83.095 129.779 82.4 131.071C82.0784 131.668 81.7408 132.263 81.3381 132.81C81.1848 133.017 81.0051 133.277 80.7484 133.314C80.5203 133.345 80.3198 133.127 80.1464 132.976C79.7882 132.663 79.4489 132.321 79.1695 131.937C78.2409 130.658 77.3121 129.373 76.531 128.001C75.8208 129.212 74.5947 131.109 73.6129 132.267C73.1584 132.803 72.6887 133.333 72.1634 133.799C71.9632 133.978 71.7249 134.204 71.4574 134.185C71.2196 134.167 71.0638 133.903 70.9208 133.714C70.6253 133.32 70.3555 132.901 70.1555 132.452C69.4903 130.958 68.8268 129.458 68.3316 127.901C67.3515 128.976 65.7016 130.633 64.4578 131.597C63.882 132.043 63.2927 132.478 62.66 132.838C62.4191 132.976 62.1292 133.153 61.8624 133.077C61.6251 133.009 61.5243 132.707 61.4204 132.484C61.206 132.022 61.0232 131.54 60.9173 131.042C60.5654 129.389 60.2168 127.727 60.0507 126.044C58.8268 126.923 56.7994 128.247 55.3325 128.956C54.6535 129.284 53.9624 129.597 53.2443 129.828C52.9717 129.915 52.6388 130.032 52.3852 129.898C52.1601 129.779 52.122 129.452 52.0666 129.204C51.9477 128.69 51.8716 128.164 51.8668 127.637C51.8542 126.055 51.9556 124.473 52.0158 122.892C52.0222 122.724 52.0475 122.557 52.0666 122.391C50.3276 123.154 48.5063 123.873 46.6612 124.329C45.9035 124.515 45.1299 124.635 44.3595 124.763C44.1249 124.801 43.6858 124.828 43.475 124.651C43.2816 124.488 43.288 124.085 43.3006 123.88C43.4084 122.081 43.4972 121.559 43.9965 119.585C44.2169 118.706 44.4832 117.84 44.7685 116.98C43.5955 117.225 42.4114 117.413 41.2241 117.574C40.4458 117.681 39.6627 117.759 38.878 117.784C38.0712 117.811 37.2612 117.768 36.4543 117.732C36.2086 117.721 35.7584 117.653 35.5825 117.429C35.4208 117.221 35.5159 116.815 35.573 116.61C35.722 116.066 35.8567 115.516 36.0612 114.989C36.7539 113.205 37.5766 111.589 38.5436 109.939C37.304 109.936 36.0644 109.872 34.8279 109.781C34.0163 109.722 33.2079 109.634 32.4074 109.491C31.5831 109.346 30.7747 109.128 29.9647 108.919C29.7174 108.856 29.2751 108.69 29.1467 108.426C29.0279 108.181 29.2117 107.791 29.3132 107.595C29.5827 107.076 29.8363 106.547 30.1565 106.058C31.2423 104.4 32.4248 102.939 33.7596 101.477C32.6373 101.235 31.5197 100.963 30.4196 100.638C29.3179 100.31 28.2273 99.9404 27.1589 99.5168C26.5154 99.2623 25.9051 98.9256 25.2916 98.6062C23.689 97.7732 25.4834 96.3916 26.2459 95.6043C26.7151 95.1206 27.2081 94.6591 27.7312 94.2354C29.0548 93.1652 30.38 92.095 31.7813 91.1292C33.1889 90.1601 34.6504 89.2654 36.1468 88.4402Z" fill="#E9E9E9"/>
</g>
<path d="M173.631 34.8483C181.304 34.8483 188.163 41.94 192.464 51.8217H192.697V32.6395C190.837 34.3833 189.325 35.4296 187.116 35.4296C183.396 35.4296 179.909 32.6395 173.398 32.6395C163.4 32.6395 154.914 39.3823 154.914 49.9616C154.914 60.0759 160.378 65.3074 172.584 69.6089C180.722 72.6315 185.14 74.7242 185.14 80.7695C185.14 86.466 181.42 90.07 175.723 90.07C167.12 90.07 160.029 82.5133 154.681 70.1902H154.449L155.611 92.1626C157.006 90.7675 158.517 89.4887 160.843 89.4887C164.447 89.4887 168.632 92.1626 175.84 92.1626C187.233 92.1626 196.533 85.4197 196.533 73.6779C196.533 63.5636 190.837 58.2158 177.816 53.6818C167.934 50.3104 165.377 47.869 165.377 42.7537C165.377 38.2198 168.516 34.8483 173.631 34.8483ZM204.208 3.92424V4.15675C208.858 6.71438 210.137 9.0395 210.137 16.7124V78.6769C210.137 86.3498 209.556 88.0936 205.022 90.7675V91H231.179V90.7675C226.762 88.0936 226.064 86.3498 226.064 78.6769V56.5882C226.064 46.1252 230.482 40.8937 236.062 40.8937C241.642 40.8937 243.735 45.3114 243.735 50.6592V78.6769C243.735 86.3498 243.154 88.0936 238.62 90.7675V91H264.777V90.7675C260.36 88.0936 259.662 86.3498 259.662 78.6769V50.6592C259.662 39.6148 254.082 32.6395 243.735 32.6395C235.132 32.6395 228.738 38.1035 226.064 47.6365V3.92424H204.208ZM275.464 15.5498C275.464 20.7814 279.649 24.9666 284.997 24.9666C290.461 24.9666 294.646 20.7814 294.646 15.5498C294.646 10.3183 290.461 6.24936 284.997 6.24936C279.649 6.24936 275.464 10.3183 275.464 15.5498ZM293.251 33.802H271.627V34.0345C276.278 36.7084 277.324 38.9173 277.324 46.7065V78.6769C277.324 86.3498 276.743 88.0936 272.209 90.7675V91H298.366V90.7675C293.948 88.0936 293.251 86.3498 293.251 78.6769V33.802ZM362.161 86.2335C361.347 86.6985 360.417 86.931 359.371 86.931C355.069 86.931 353.674 83.9084 353.674 78.2118C353.674 69.4926 353.907 60.4247 353.907 51.473C353.907 37.7547 345.071 32.6395 329.958 32.6395C317.984 32.6395 309.264 38.336 309.264 46.8227C309.264 52.6355 313.333 56.0069 318.914 56.0069C323.448 56.0069 327.051 53.7981 328.33 49.8454C327.865 50.0779 327.168 50.1941 326.703 50.1941C323.564 50.1941 321.587 47.7528 321.587 43.335C321.587 38.5685 324.261 34.8483 329.377 34.8483C335.306 34.8483 337.747 39.7311 337.747 45.7764V57.867L330.655 59.3784C318.332 62.1685 306.474 65.4237 306.474 77.7468C306.474 87.0473 313.333 91.8138 321.587 91.8138C330.19 91.8138 336.468 86.466 337.98 79.0256C337.98 79.4907 338.212 81.8158 338.212 82.0483C339.142 88.2099 343.211 91.93 350.419 91.93C355.65 91.93 359.952 89.6049 362.161 86.466V86.2335ZM337.747 60.0759V72.0503C337.631 79.8394 333.911 84.7222 328.912 84.7222C324.726 84.7222 322.169 81.2345 322.169 75.0729C322.169 67.0513 326.121 62.9823 333.446 61.1222L337.747 60.0759ZM401.604 71.5852C400.325 79.7232 397.187 84.0246 392.536 84.0246C388.351 84.0246 386.258 80.8857 386.258 74.2591V36.8247H400.674L401.256 33.802H386.258V13.806H385.212C382.19 25.4316 374.517 33.337 364.519 35.6621V36.8247H370.448L370.331 74.0266C370.215 86.466 376.377 92.1626 385.793 92.1626C397.07 92.1626 401.604 83.3271 402.651 71.8178L401.604 71.5852ZM429.939 34.8483C437.612 34.8483 444.471 41.94 448.772 51.8217H449.005V32.6395C447.145 34.3833 445.634 35.4296 443.425 35.4296C439.704 35.4296 436.217 32.6395 429.706 32.6395C419.708 32.6395 411.222 39.3823 411.222 49.9616C411.222 60.0759 416.686 65.3074 428.893 69.6089C437.031 72.6315 441.448 74.7242 441.448 80.7695C441.448 86.466 437.728 90.07 432.032 90.07C423.429 90.07 416.337 82.5133 410.989 70.1902H410.757L411.919 92.1626C413.314 90.7675 414.826 89.4887 417.151 89.4887C420.755 89.4887 424.94 92.1626 432.148 92.1626C443.541 92.1626 452.841 85.4197 452.841 73.6779C452.841 63.5636 447.145 58.2158 434.124 53.6818C424.242 50.3104 421.685 47.869 421.685 42.7537C421.685 38.2198 424.824 34.8483 429.939 34.8483ZM498.997 68.2138C498.997 78.6769 494.695 83.7921 489.115 83.7921C483.767 83.7921 481.675 79.1419 481.675 73.9104V33.802H460.051V34.0345C464.701 36.7084 465.748 38.9173 465.748 46.7065V74.1429C465.748 85.0709 471.444 92.1626 481.442 92.1626C490.161 92.1626 496.555 86.6985 498.997 77.0493V91H520.62V90.7675C516.203 88.3261 515.04 86.2335 515.04 78.6769V33.802H493.3V34.0345C497.951 36.7084 498.997 38.9173 498.997 46.7065V68.2138ZM558.062 65.3074H531.556L558.062 21.5952V65.3074ZM558.062 76.933C558.062 84.6059 556.9 87.8611 551.668 90.7675V91H581.081V90.7675C575.733 87.8611 574.687 84.6059 574.687 76.933V68.5626H577.826C584.452 68.5626 585.731 70.1902 588.754 76.7005H588.986V57.2858H588.754C585.731 63.7961 584.452 65.3074 577.826 65.3074H574.687V8.92325H562.364L525.976 68.2138V68.5626H558.062V76.933ZM633.922 68.2138C633.922 78.6769 629.62 83.7921 624.04 83.7921C618.692 83.7921 616.6 79.1419 616.6 73.9104V33.802H594.976V34.0345C599.626 36.7084 600.673 38.9173 600.673 46.7065V74.1429C600.673 85.0709 606.369 92.1626 616.367 92.1626C625.087 92.1626 631.481 86.6985 633.922 77.0493V91H655.546V90.7675C651.128 88.3261 649.965 86.2335 649.965 78.6769V33.802H628.225V34.0345C632.876 36.7084 633.922 38.9173 633.922 46.7065V68.2138Z" fill="#E9E9E9"/>
<path d="M215.767 124.398C215.767 121.317 213.517 119.586 209.743 119.586C206.315 119.586 204.134 121.386 204.134 123.74C204.134 124.398 204.307 124.987 204.48 125.437C204.896 126.199 205.242 126.649 206.038 127.03C206.696 127.341 206.661 127.41 207.492 127.687C207.908 127.826 208.15 127.895 208.254 127.93C208.323 127.964 208.6 128.034 209.085 128.137C209.535 128.241 209.812 128.311 209.847 128.345C212.443 129.038 213.378 129.522 213.378 130.907C213.378 132.431 212.028 133.227 210.089 133.227C207.769 133.227 206.454 132.257 206.211 130.284L203.788 130.388C203.788 133.677 206.246 135.304 210.124 135.304C213.482 135.304 215.906 133.712 215.906 130.907C215.906 129.661 215.317 128.657 214.763 128.103C214.486 127.861 214.036 127.584 213.447 127.307C212.824 127.064 212.374 126.891 212.062 126.787C211.751 126.683 211.197 126.545 210.435 126.372C209.189 126.06 208.981 125.991 208.15 125.679C206.973 125.229 206.8 124.779 206.627 123.671C206.627 122.529 207.804 121.629 209.777 121.629C212.097 121.629 213.274 122.598 213.344 124.571L215.767 124.398ZM226.283 121.802C228.637 121.802 229.814 123.325 229.814 126.406V134.958H232.273V125.679C232.273 121.629 230.438 119.586 226.802 119.586C224.552 119.586 222.925 120.555 221.921 122.529C221.99 121.732 222.024 120.901 222.024 120.071V112.869H219.566V134.958H222.024V125.195C222.821 122.944 224.24 121.802 226.283 121.802ZM237.98 116.574C239.123 116.574 239.746 115.881 239.746 114.773C239.746 113.7 239.123 113.008 237.98 113.008C236.872 113.008 236.215 113.7 236.215 114.773C236.215 115.881 236.872 116.574 237.98 116.574ZM236.734 134.958H239.192V119.897H236.734V134.958ZM255.87 135.304C256.493 135.304 257.047 135.166 257.497 134.889L257.081 132.95C256.908 133.054 256.666 133.123 256.424 133.123C255.835 133.123 255.523 132.638 255.523 131.634V124.883C255.523 121.352 253.55 119.586 249.603 119.586C246.002 119.586 243.683 121.317 243.302 124.502L245.691 124.675C245.968 122.667 247.249 121.663 249.568 121.663C251.784 121.663 253.065 122.736 253.065 124.848V126.372H249.361C244.998 126.372 242.817 127.964 242.817 131.15C242.817 133.815 245.137 135.304 248.045 135.304C250.607 135.304 252.373 134.231 253.342 132.119V132.327C253.342 134.3 254.173 135.304 255.87 135.304ZM253.1 128.241C253.1 131.6 250.988 133.123 248.391 133.158C246.591 133.192 245.414 132.327 245.414 130.769C245.414 129.072 246.833 128.241 249.707 128.241H253.1ZM264.889 135.27C266.516 135.27 267.728 134.82 268.524 133.885L267.417 132.119C266.828 132.708 266.101 132.985 265.235 132.985C263.885 132.985 263.193 132.084 263.193 130.284V122.044H268.144V119.897H263.193V115.016H261.081L260.734 119.413C260.7 119.724 260.527 119.897 260.215 119.897H258.103V122.044H260.734V130.596C260.734 133.712 262.119 135.27 264.889 135.27ZM282.198 124.398C282.198 121.317 279.948 119.586 276.174 119.586C272.746 119.586 270.565 121.386 270.565 123.74C270.565 124.398 270.738 124.987 270.911 125.437C271.327 126.199 271.673 126.649 272.469 127.03C273.127 127.341 273.092 127.41 273.923 127.687C274.339 127.826 274.581 127.895 274.685 127.93C274.754 127.964 275.031 128.034 275.516 128.137C275.966 128.241 276.243 128.311 276.278 128.345C278.874 129.038 279.809 129.522 279.809 130.907C279.809 132.431 278.459 133.227 276.52 133.227C274.2 133.227 272.885 132.257 272.642 130.284L270.219 130.388C270.219 133.677 272.677 135.304 276.555 135.304C279.913 135.304 282.336 133.712 282.336 130.907C282.336 129.661 281.748 128.657 281.194 128.103C280.917 127.861 280.467 127.584 279.878 127.307C279.255 127.064 278.805 126.891 278.493 126.787C278.182 126.683 277.628 126.545 276.866 126.372C275.62 126.06 275.412 125.991 274.581 125.679C273.404 125.229 273.231 124.779 273.058 123.671C273.058 122.529 274.235 121.629 276.208 121.629C278.528 121.629 279.705 122.598 279.774 124.571L282.198 124.398ZM295.761 134.958H298.115V119.897H295.657V129.626C294.826 131.946 293.441 133.088 291.537 133.088C289.217 133.088 288.074 131.496 288.074 128.276V119.897H285.616V129.003C285.616 133.192 287.417 135.27 291.017 135.27C293.406 135.27 295.033 134.092 295.968 131.773L295.761 133.608V134.958ZM312.818 118.893C312.818 116.851 314.376 115.639 316.765 115.639C318.704 115.639 320.089 116.851 320.089 118.478C320.089 119.482 319.466 120.417 318.808 120.971C318.496 121.248 318.046 121.525 317.458 121.802C316.281 122.39 315.865 122.529 314.619 122.944C313.407 121.421 312.818 120.071 312.818 118.893ZM314.03 133.227C311.364 133.227 309.875 131.704 309.875 129.522C309.875 127.687 311.156 126.233 313.684 125.229L315.242 126.96L319.223 131.288C319.258 131.323 319.327 131.427 319.362 131.461C317.665 132.638 315.865 133.227 314.03 133.227ZM325.732 135.27C326.494 135.27 327.29 135.096 328.087 134.785L327.567 132.777C327.117 132.985 326.563 133.088 325.94 133.088C325.005 133.088 323.897 132.5 322.616 131.357C324.867 129.107 326.252 126.476 326.771 123.464H324.486C323.932 126.06 322.824 128.241 321.162 129.938L320.885 129.661L317.25 125.818L316.038 124.537C319.95 123.256 322.582 121.421 322.582 118.236C322.582 116.851 322.028 115.743 320.885 114.877C319.743 114.046 318.427 113.631 316.869 113.631C312.957 113.631 310.291 115.57 310.291 119.067C310.291 120.348 310.983 121.906 312.368 123.706C308.941 125.125 307.244 127.133 307.244 129.765C307.244 133.469 309.772 135.304 313.961 135.304C316.281 135.304 318.566 134.508 320.816 132.881C322.512 134.473 324.174 135.27 325.732 135.27ZM334.5 116.262H341.978V134.958H344.471V116.262H351.95V113.977H334.5V116.262ZM355.906 116.574C357.048 116.574 357.672 115.881 357.672 114.773C357.672 113.7 357.048 113.008 355.906 113.008C354.798 113.008 354.14 113.7 354.14 114.773C354.14 115.881 354.798 116.574 355.906 116.574ZM354.66 134.958H357.118V119.897H354.66V134.958ZM368.013 121.629C370.679 121.629 372.133 123.152 372.237 125.818H363.201C363.651 123.083 365.417 121.629 368.013 121.629ZM372.237 130.18C371.787 132.154 370.368 133.158 368.048 133.158C364.967 133.158 363.201 131.253 363.062 127.791H374.73C374.765 127.133 374.799 126.683 374.799 126.406C374.799 122.079 372.237 119.586 368.048 119.586C365.798 119.586 363.997 120.313 362.647 121.767C361.262 123.256 360.57 125.16 360.57 127.514C360.57 132.465 363.235 135.304 367.806 135.304C371.579 135.304 373.795 133.677 374.522 130.457L372.237 130.18ZM380.666 125.437C381.497 123.256 382.882 122.183 384.786 122.183C385.097 122.183 385.409 122.217 385.755 122.286L386.067 119.759C385.686 119.655 385.305 119.62 384.924 119.62C383.055 119.62 381.566 120.867 380.458 123.325C380.527 122.633 380.562 121.94 380.562 121.248V119.897H378.208V134.958H380.666V125.437ZM400.767 135.304C401.079 135.304 401.425 135.235 401.806 135.131L401.598 132.95C401.529 132.985 401.39 132.985 401.217 132.985C400.421 132.985 400.005 132.673 399.14 131.461L395.366 126.164L401.633 119.897H398.62L391.142 127.307H391.073V112.869H388.615V134.958H391.073V130.492L393.635 127.93L396.855 132.465C397.686 133.642 398.344 134.404 398.863 134.75C399.348 135.131 399.971 135.304 400.767 135.304ZM404.781 133.192C406.062 134.612 407.793 135.304 410.044 135.304C412.432 135.304 414.302 134.577 415.652 133.123C417.003 131.669 417.66 129.765 417.66 127.41C417.66 122.667 414.96 119.586 410.494 119.586C408.105 119.586 406.235 120.313 404.885 121.767C403.535 123.256 402.842 125.16 402.842 127.549C402.842 129.938 403.5 131.807 404.781 133.192ZM405.37 127.514C405.37 123.948 407.274 121.732 410.321 121.732C413.229 121.732 415.098 124.017 415.098 127.514C415.098 130.942 413.194 133.158 410.251 133.158C407.308 133.158 405.37 130.942 405.37 127.514ZM427.599 121.836C429.987 121.836 431.165 123.36 431.165 126.406V134.958H433.623V125.091C434.488 122.91 435.839 121.836 437.674 121.836C439.993 121.836 441.17 123.36 441.17 126.406V134.958H443.628V125.852C443.628 121.663 441.863 119.586 438.297 119.586C435.908 119.586 434.177 120.625 433.069 122.702C432.342 120.625 430.749 119.586 428.36 119.586C426.075 119.586 424.448 120.59 423.444 122.633C423.479 122.044 423.513 121.594 423.513 121.282V119.897H421.124V134.958H423.582V125.125C424.483 122.944 425.833 121.836 427.599 121.836ZM454.571 121.836C456.96 121.836 458.137 123.36 458.137 126.406V134.958H460.595V125.091C461.461 122.91 462.811 121.836 464.646 121.836C466.966 121.836 468.143 123.36 468.143 126.406V134.958H470.601V125.852C470.601 121.663 468.835 119.586 465.269 119.586C462.88 119.586 461.149 120.625 460.041 122.702C459.314 120.625 457.722 119.586 455.333 119.586C453.048 119.586 451.421 120.59 450.417 122.633C450.451 122.044 450.486 121.594 450.486 121.282V119.897H448.097V134.958H450.555V125.125C451.455 122.944 452.805 121.836 454.571 121.836ZM484.833 134.958H487.187V119.897H484.729V129.626C483.898 131.946 482.513 133.088 480.609 133.088C478.289 133.088 477.147 131.496 477.147 128.276V119.897H474.689V129.003C474.689 133.192 476.489 135.27 480.09 135.27C482.479 135.27 484.106 134.092 485.041 131.773L484.833 133.608V134.958ZM498.751 121.802C501.105 121.802 502.282 123.36 502.282 126.476V134.958H504.741V125.749C504.741 121.559 502.733 119.586 499.27 119.586C496.951 119.586 495.289 120.625 494.319 122.702C494.354 122.113 494.389 121.629 494.389 121.282V119.897H492.034V134.958H494.492V125.264C495.323 122.944 496.743 121.802 498.751 121.802ZM510.482 116.574C511.625 116.574 512.248 115.881 512.248 114.773C512.248 113.7 511.625 113.008 510.482 113.008C509.374 113.008 508.716 113.7 508.716 114.773C508.716 115.881 509.374 116.574 510.482 116.574ZM509.236 134.958H511.694V119.897H509.236V134.958ZM528.683 135.304C528.995 135.304 529.341 135.235 529.722 135.131L529.514 132.95C529.445 132.985 529.306 132.985 529.133 132.985C528.337 132.985 527.921 132.673 527.056 131.461L523.282 126.164L529.549 119.897H526.536L519.058 127.307H518.989V112.869H516.531V134.958H518.989V130.492L521.551 127.93L524.771 132.465C525.602 133.642 526.259 134.404 526.779 134.75C527.264 135.131 527.887 135.304 528.683 135.304ZM543.984 135.304C544.607 135.304 545.161 135.166 545.611 134.889L545.196 132.95C545.022 133.054 544.78 133.123 544.538 133.123C543.949 133.123 543.638 132.638 543.638 131.634V124.883C543.638 121.352 541.664 119.586 537.717 119.586C534.117 119.586 531.797 121.317 531.416 124.502L533.805 124.675C534.082 122.667 535.363 121.663 537.683 121.663C539.898 121.663 541.179 122.736 541.179 124.848V126.372H537.475C533.112 126.372 530.931 127.964 530.931 131.15C530.931 133.815 533.251 135.304 536.159 135.304C538.721 135.304 540.487 134.231 541.456 132.119V132.327C541.456 134.3 542.287 135.304 543.984 135.304ZM541.214 128.241C541.214 131.6 539.102 133.123 536.505 133.158C534.705 133.192 533.528 132.327 533.528 130.769C533.528 129.072 534.947 128.241 537.821 128.241H541.214ZM553.003 135.27C554.631 135.27 555.842 134.82 556.639 133.885L555.531 132.119C554.942 132.708 554.215 132.985 553.35 132.985C551.999 132.985 551.307 132.084 551.307 130.284V122.044H556.258V119.897H551.307V115.016H549.195L548.849 119.413C548.814 119.724 548.641 119.897 548.329 119.897H546.217V122.044H548.849V130.596C548.849 133.712 550.234 135.27 553.003 135.27ZM560.895 116.574C562.038 116.574 562.661 115.881 562.661 114.773C562.661 113.7 562.038 113.008 560.895 113.008C559.787 113.008 559.129 113.7 559.129 114.773C559.129 115.881 559.787 116.574 560.895 116.574ZM559.649 134.958H562.107V119.897H559.649V134.958ZM567.497 133.192C568.779 134.612 570.51 135.304 572.76 135.304C575.149 135.304 577.019 134.577 578.369 133.123C579.719 131.669 580.377 129.765 580.377 127.41C580.377 122.667 577.676 119.586 573.21 119.586C570.821 119.586 568.952 120.313 567.601 121.767C566.251 123.256 565.559 125.16 565.559 127.549C565.559 129.938 566.216 131.807 567.497 133.192ZM568.086 127.514C568.086 123.948 569.99 121.732 573.037 121.732C575.945 121.732 577.815 124.017 577.815 127.514C577.815 130.942 575.911 133.158 572.968 133.158C570.025 133.158 568.086 130.942 568.086 127.514ZM590.557 121.802C592.912 121.802 594.089 123.36 594.089 126.476V134.958H596.547V125.749C596.547 121.559 594.539 119.586 591.077 119.586C588.757 119.586 587.095 120.625 586.126 122.702C586.16 122.113 586.195 121.629 586.195 121.282V119.897H583.841V134.958H586.299V125.264C587.13 122.944 588.549 121.802 590.557 121.802ZM603.604 134.646C604.366 133.85 604.366 132.431 603.604 131.669C602.842 130.907 601.423 130.907 600.627 131.669C599.83 132.431 599.83 133.85 600.627 134.646C601.423 135.443 602.842 135.443 603.604 134.646Z" fill="#E9E9E9"/>
<defs>
<clipPath id="clip0_315_152">
<rect width="136.242" height="134.208" fill="white"/>
</clipPath>
</defs>
</svg>
