<svg width="226" height="46" viewBox="0 0 226 46" fill="none" xmlns="http://www.w3.org/2000/svg">
<g clip-path="url(#clip0_837_174)">
<path fill-rule="evenodd" clip-rule="evenodd" d="M20.2715 19.8112C20.4355 20.7495 19.5584 21.6552 18.6179 21.8186C17.6768 21.982 16.3736 21.8364 16.166 20.9067C15.2366 16.7458 14.6855 12.1793 14.4803 8.14072C14.432 7.18992 14.9961 6.32109 15.9405 6.18301C16.8855 6.04489 17.8604 6.6892 17.9033 7.64026C18.08 11.5701 19.5585 15.7302 20.2715 19.8112Z" fill="#E9E9E9"/>
<path fill-rule="evenodd" clip-rule="evenodd" d="M25.8622 17.1317C26.0936 18.0555 25.2721 18.9933 24.3452 19.2247C23.4189 19.4555 22.0084 19.0854 21.777 18.1611C20.4703 12.9505 21.0288 7.08319 20.9691 1.74415C20.9582 0.791641 21.7254 0.00975118 22.68 -0.000868374C23.6351 -0.0114337 24.4191 0.753175 24.43 1.70568C24.4865 6.7814 24.6202 12.1784 25.8622 17.1317Z" fill="#E9E9E9"/>
<path fill-rule="evenodd" clip-rule="evenodd" d="M31.3174 17.3344C31.3794 18.2847 30.5351 19.2264 29.5821 19.2882C28.6286 19.3499 27.4028 18.2273 27.3409 17.2764C27.0464 12.7414 27.5604 8.48926 27.574 3.94452C27.5767 2.99256 28.0407 2.28441 28.9953 2.28712C29.9505 2.28983 30.4096 2.81484 30.4063 3.76735C30.3927 8.23406 31.0279 12.8763 31.3174 17.3344Z" fill="#E9E9E9"/>
<path fill-rule="evenodd" clip-rule="evenodd" d="M36.1293 20.7662C35.8175 21.6662 34.5483 22.0866 33.6458 21.7762C32.7428 21.4651 32.2115 20.1756 32.5233 19.2757C33.5687 16.2556 34.626 13.5991 35.3116 10.469C35.5148 9.53874 36.4379 8.94816 37.3713 9.15134C38.3042 9.35452 38.8964 10.2745 38.6927 11.2054C37.9782 14.4687 37.2192 17.6177 36.1293 20.7662Z" fill="#E9E9E9"/>
<path fill-rule="evenodd" clip-rule="evenodd" d="M12.3914 30.3128C11.9035 29.1252 11.1489 28.0621 10.0128 27.4277C9.20813 26.9785 8.08292 26.9346 7.58524 26.058C6.99357 25.0155 7.66729 23.6442 8.86747 23.4963C9.46023 23.4237 10.2312 23.7406 10.7175 23.9346C11.7041 24.3279 12.6158 24.8887 13.3813 25.6267C14.2745 26.4871 15.1634 27.7398 15.5242 28.9382C15.8599 30.0544 15.9224 31.2377 16.2223 32.3641C16.4614 33.2625 16.8455 34.1223 17.3437 34.9069C19.8071 38.7841 24.7656 40.8061 29.1184 38.9943C30.194 38.5468 31.0798 37.8587 31.9136 37.0584C32.2516 36.6363 32.5903 36.2137 32.8946 35.7667C33.9377 34.2361 34.212 32.071 33.7475 30.3042C32.9877 27.4141 30.1138 25.1201 27.0407 25.7356C26.3293 25.8781 25.6372 26.1853 25.0487 26.6068C23.8885 27.438 23.0656 28.7784 23.0896 30.2326C23.1207 32.1171 24.5515 33.9663 26.5409 33.9999C27.5058 34.0161 28.1915 33.6076 29.0215 33.1276C29.2132 33.6325 29.2972 34.0844 29.3345 34.6213C29.3459 34.786 29.3286 34.9513 29.3231 35.116C29.3216 35.1626 29.3257 35.2948 29.2609 35.3257C29.1914 35.3593 29.0808 35.2823 29.0338 35.2531C28.8816 35.1572 28.7242 35.0683 28.5808 34.96C28.5548 35.1702 28.499 35.3755 28.4544 35.5825C28.337 36.1276 27.895 35.5191 27.7195 35.317C27.6479 35.524 27.5472 35.7201 27.4575 35.92C27.2212 36.4472 26.9047 35.7364 26.7706 35.4942C26.6535 35.6887 26.5093 35.8653 26.3753 36.049C26.0226 36.5318 25.8552 35.744 25.7716 35.4704C25.6111 35.6421 25.427 35.79 25.2519 35.9471C24.7907 36.3605 24.7909 35.5272 24.7652 35.2319C24.5657 35.3717 24.3473 35.4823 24.1362 35.6036C23.5803 35.9233 23.7599 35.0797 23.7975 34.7752C23.5655 34.8738 23.3205 34.9388 23.0806 35.0168C22.4488 35.2211 22.8124 34.4057 22.9161 34.1055C22.6599 34.1554 22.3978 34.1689 22.1381 34.1965C21.4544 34.2681 21.9982 33.5204 22.1679 33.2386C21.8977 33.2343 21.6294 33.192 21.3606 33.1638C20.6528 33.0902 21.3645 32.4492 21.5971 32.2C21.3243 32.1382 21.0618 32.038 20.7956 31.9518C20.0949 31.7259 20.9535 31.229 21.2427 31.0269C20.9799 30.9056 20.7357 30.7479 20.4847 30.6038C19.8239 30.2245 20.8003 29.9059 21.1366 29.7629C20.8966 29.5835 20.6833 29.3717 20.4603 29.1718C20.3912 29.11 20.2189 28.9691 20.2396 28.8434C20.2581 28.7302 20.473 28.6868 20.5404 28.6679C20.7935 28.5964 21.0434 28.5107 21.3015 28.4604C21.0971 28.2274 20.9268 27.9668 20.7439 27.717C20.6873 27.6395 20.5432 27.4602 20.5912 27.3372C20.6343 27.2267 20.8614 27.2283 20.9337 27.2234C21.2054 27.2055 21.4768 27.1725 21.749 27.1768C21.5922 26.8972 21.4759 26.5971 21.3446 26.3045C21.3039 26.214 21.1967 26.0016 21.2718 25.8873C21.3392 25.7849 21.5687 25.8353 21.643 25.8456C21.9219 25.8857 22.204 25.91 22.4787 25.9724C22.38 25.6559 22.3269 25.327 22.2569 25.003C22.2352 24.9028 22.1725 24.6644 22.2732 24.5647C22.3635 24.4753 22.585 24.5756 22.658 24.6021C22.9318 24.7023 23.212 24.7879 23.4767 24.9099C23.4451 24.5685 23.4621 24.2239 23.461 23.8809C23.4607 23.7748 23.4485 23.5196 23.5719 23.4405C23.6826 23.3695 23.8853 23.5185 23.9534 23.5607C24.2092 23.7211 24.4745 23.8674 24.7163 24.0478C24.7577 23.6951 24.8492 23.35 24.922 23.0027C24.9445 22.8948 24.9872 22.6342 25.1292 22.5801C25.2565 22.5318 25.4297 22.7263 25.4895 22.7838C25.714 23.0005 25.9511 23.2059 26.157 23.4405C26.275 23.0921 26.4419 22.7621 26.5904 22.4262C26.6364 22.3216 26.7358 22.067 26.8912 22.0431C27.0305 22.0214 27.1641 22.255 27.2122 22.3265C27.3928 22.5936 27.5887 22.8526 27.7467 23.1338C27.9411 22.8065 28.1812 22.5085 28.404 22.1997C28.4731 22.1038 28.6286 21.867 28.7911 21.8762C28.9368 21.8844 29.0217 22.1493 29.0551 22.2317C29.1803 22.5416 29.3229 22.845 29.4222 23.1641C29.6897 22.8743 29.997 22.6239 30.2891 22.359C30.3796 22.2766 30.588 22.0702 30.7506 22.1141C30.8965 22.1537 30.9253 22.4403 30.9414 22.5308C31.0015 22.8716 31.0804 23.2096 31.1124 23.5537C31.4455 23.3175 31.8107 23.1295 32.1635 22.9241C32.2729 22.8602 32.5283 22.696 32.6835 22.7751C32.8227 22.8461 32.7901 23.143 32.7868 23.2378C32.7744 23.5954 32.7816 23.9546 32.7398 24.3101C33.128 24.1421 33.5381 24.0305 33.9397 23.8977C34.0641 23.8566 34.3582 23.745 34.4983 23.8582C34.6239 23.9601 34.5271 24.2532 34.5032 24.3491C34.4137 24.7083 34.3435 25.074 34.2247 25.4246C34.6538 25.3379 35.0932 25.3124 35.5284 25.2642C35.6633 25.249 35.9851 25.1992 36.1025 25.3438C36.2078 25.4739 36.0465 25.7502 36.0017 25.8418C35.8337 26.1864 35.684 26.5413 35.488 26.8712C35.9413 26.875 36.393 26.9319 36.8427 26.9877C37.3349 27.0495 37.4932 27.1459 37.2579 27.575C37.1716 27.7322 37.0635 27.8774 36.9533 28.0193C36.7958 28.2214 36.6298 28.4176 36.4557 28.6061C36.9137 28.7074 37.3589 28.8618 37.8022 29.0146C38.2874 29.1826 38.4269 29.3137 38.0961 29.6984C37.9748 29.8393 37.8342 29.9628 37.692 30.0825C37.489 30.2543 37.2786 30.4174 37.0617 30.5707C37.5037 30.7712 37.9213 31.0226 38.3371 31.2729C38.7923 31.5465 38.9052 31.7096 38.4875 32.0277C38.3344 32.1447 38.1653 32.2395 37.9955 32.3305C37.753 32.4606 37.5049 32.5803 37.2522 32.6898C37.6565 32.9872 38.0252 33.3313 38.3924 33.6737C38.7943 34.0481 38.8735 34.2377 38.382 34.4702C38.2018 34.5558 38.0102 34.6159 37.8188 34.6712C37.5452 34.7508 37.268 34.8196 36.9887 34.876C37.3339 35.2639 37.621 35.7001 37.9312 36.1162C38.0881 36.327 38.4393 36.8222 37.9512 36.9116C37.8414 36.9316 37.7293 36.9381 37.6178 36.9457C37.1625 36.9782 36.7076 37.0373 36.251 37.0329C36.5169 37.5 36.7137 38.0028 36.9381 38.491C37.0516 38.738 37.3005 39.3145 36.7871 39.3004C36.6715 39.2972 36.5567 39.2798 36.4422 39.2636C35.974 39.1991 35.5007 39.1612 35.0394 39.0593C35.208 39.5887 35.299 40.1402 35.421 40.6826C35.4828 40.9568 35.6106 41.5939 35.0939 41.4699C34.9775 41.4417 34.865 41.3994 34.7524 41.3588C34.2924 41.193 33.8213 41.0532 33.3762 40.8511C33.4328 41.4238 33.4062 42.0014 33.4129 42.5768C33.4164 42.8677 33.4084 43.5401 32.9121 43.3033C32.8003 43.2502 32.6954 43.1836 32.5902 43.1181C32.1601 42.852 31.7133 42.6093 31.3061 42.3091C31.2692 42.6402 31.2164 42.9696 31.1565 43.2974C31.1172 43.512 31.0699 43.7254 31.0087 43.9346C30.9458 44.1502 30.8773 44.3659 30.7846 44.5707C30.5822 45.0171 30.2373 44.6427 30.022 44.4363C29.6438 44.0749 29.2436 43.7335 28.896 43.3424C28.7495 43.7834 28.483 44.4818 28.2448 44.9245C28.1345 45.1293 28.0188 45.333 27.8808 45.5205C27.8283 45.5914 27.7666 45.6808 27.6787 45.6933C27.6005 45.7041 27.5318 45.6294 27.4723 45.5773C27.3495 45.4701 27.2333 45.353 27.1375 45.2214C26.8192 44.783 26.5009 44.3425 26.2331 43.8723C25.9897 44.2873 25.5695 44.9375 25.233 45.3346C25.0772 45.5183 24.9162 45.6998 24.7361 45.8596C24.6675 45.9209 24.5859 45.9983 24.4942 45.9918C24.4127 45.9859 24.3592 45.8954 24.3102 45.8304C24.209 45.6955 24.1165 45.5519 24.0479 45.398C23.82 44.886 23.5925 44.3718 23.4228 43.8381C23.0869 44.2066 22.5214 44.7744 22.095 45.1049C21.8977 45.2577 21.6957 45.4067 21.4789 45.5302C21.3963 45.5773 21.2969 45.638 21.2055 45.612C21.1241 45.5887 21.0896 45.4852 21.054 45.4088C20.9805 45.2506 20.9178 45.0854 20.8815 44.9147C20.7609 44.348 20.6414 43.7785 20.5845 43.2015C20.165 43.5027 19.4701 43.9568 18.9673 44.1995C18.7346 44.3122 18.4977 44.4195 18.2516 44.4986C18.1582 44.5284 18.0441 44.5685 17.9571 44.5224C17.88 44.4818 17.8669 44.3696 17.8479 44.2846C17.8072 44.1085 17.7811 43.9281 17.7795 43.7476C17.7751 43.2053 17.8099 42.6629 17.8306 42.1211C17.8327 42.0637 17.8414 42.0062 17.8479 41.9494C17.2519 42.2111 16.6276 42.4576 15.9952 42.6136C15.7355 42.6776 15.4704 42.7187 15.2063 42.7626C15.1259 42.7756 14.9754 42.7848 14.9032 42.7242C14.8369 42.6683 14.8391 42.5302 14.8434 42.4598C14.8803 41.8432 14.9108 41.6644 15.0819 40.9876C15.1574 40.6864 15.2487 40.3895 15.3465 40.0947C14.9445 40.1787 14.5386 40.2432 14.1317 40.2985C13.8649 40.3353 13.5965 40.3618 13.3276 40.3705C13.051 40.3797 12.7734 40.3651 12.4968 40.3526C12.4126 40.3488 12.2583 40.3255 12.198 40.2486C12.1426 40.1776 12.1752 40.0384 12.1947 39.968C12.2458 39.7816 12.292 39.593 12.3621 39.4126C12.5995 38.8009 12.8815 38.2471 13.2129 37.6815C12.788 37.6804 12.3632 37.6587 11.9394 37.6273C11.6612 37.6073 11.3841 37.5769 11.1097 37.5282C10.8272 37.4783 10.5501 37.4035 10.2725 37.332C10.1877 37.3103 10.0361 37.2535 9.99214 37.163C9.95139 37.079 10.0144 36.9452 10.0492 36.878C10.1415 36.7003 10.2285 36.5188 10.3382 36.3513C10.7104 35.783 11.1157 35.2823 11.5732 34.7812C11.1885 34.6983 10.8055 34.6051 10.4284 34.4935C10.0508 34.3813 9.67701 34.2545 9.31082 34.1093C9.09023 34.0221 8.88106 33.9067 8.67079 33.7972C8.1215 33.5117 8.73653 33.0381 8.99787 32.7683C9.15869 32.6025 9.32766 32.4443 9.50695 32.2991C9.96062 31.9323 10.4148 31.5655 10.8951 31.2344C11.3776 30.9023 11.8785 30.5956 12.3914 30.3128Z" fill="#E9E9E9"/>
</g>
<path d="M59.5127 14.8389C57.7595 14.8389 56.6836 15.9945 56.6836 17.5485C56.6836 19.3018 57.5602 20.1385 60.9472 21.2941C65.4101 22.8481 67.3626 24.6811 67.3626 28.1478C67.3626 32.1723 64.1748 34.4834 60.2698 34.4834C57.7993 34.4834 56.3648 33.567 55.1296 33.567C54.3326 33.567 53.8146 34.0053 53.3364 34.4834L52.938 26.9524H53.0177C54.8506 31.1761 57.2813 33.7662 60.23 33.7662C62.1825 33.7662 63.4576 32.5309 63.4576 30.5784C63.4576 28.5064 61.9434 27.7891 59.1541 26.7531C54.9702 25.2788 53.0974 23.4857 53.0974 20.019C53.0974 16.3929 56.0062 14.0818 59.433 14.0818C61.6645 14.0818 62.8599 15.0381 64.135 15.0381C64.8921 15.0381 65.4101 14.6795 66.0476 14.0818V20.6566H65.9679C64.4936 17.2696 62.1426 14.8389 59.5127 14.8389ZM69.9931 4.23963H77.4843V19.2221C78.4008 15.9546 80.5924 14.0818 83.541 14.0818C87.0874 14.0818 89.0001 16.4726 89.0001 20.2581V29.8612C89.0001 32.4911 89.2391 33.0888 90.7533 34.0053V34.085H81.7878V34.0053C83.3418 33.0888 83.541 32.4911 83.541 29.8612V20.2581C83.541 18.4251 82.8238 16.9109 80.9111 16.9109C78.9985 16.9109 77.4843 18.7041 77.4843 22.2903V29.8612C77.4843 32.4911 77.7234 33.0888 79.2376 34.0053V34.085H70.272V34.0053C71.826 33.0888 72.0253 32.4911 72.0253 29.8612V8.62278C72.0253 5.99289 71.587 5.19595 69.9931 4.31932V4.23963ZM94.4161 8.22432C94.4161 6.43121 95.8506 5.03656 97.6836 5.03656C99.5564 5.03656 100.991 6.43121 100.991 8.22432C100.991 10.0174 99.5564 11.4519 97.6836 11.4519C95.8506 11.4519 94.4161 10.0174 94.4161 8.22432ZM100.513 14.4803V29.8612C100.513 32.4911 100.752 33.0888 102.266 34.0053V34.085H93.3004V34.0053C94.8544 33.0888 95.0537 32.4911 95.0537 29.8612V18.9033C95.0537 16.2335 94.695 15.4765 93.1012 14.56V14.4803H100.513ZM124.132 32.4512V32.5309C123.375 33.6068 121.9 34.4037 120.107 34.4037C117.637 34.4037 116.242 33.1286 115.923 31.0167C115.923 30.9371 115.843 30.1401 115.843 29.9807C115.325 32.5309 113.174 34.3639 110.225 34.3639C107.396 34.3639 105.045 32.7302 105.045 29.5424C105.045 25.3186 109.109 24.2029 113.333 23.2466L115.764 22.7286V18.5845C115.764 16.5125 114.927 14.8389 112.895 14.8389C111.142 14.8389 110.225 16.114 110.225 17.7477C110.225 19.2619 110.902 20.0987 111.978 20.0987C112.138 20.0987 112.377 20.0588 112.536 19.9792C112.098 21.3339 110.863 22.091 109.309 22.091C107.396 22.091 106.001 20.9355 106.001 18.9431C106.001 16.0343 108.99 14.0818 113.094 14.0818C118.274 14.0818 121.303 15.8351 121.303 20.537C121.303 23.6052 121.223 26.7133 121.223 29.7018C121.223 31.6543 121.701 32.6903 123.175 32.6903C123.534 32.6903 123.853 32.6106 124.132 32.4512ZM115.764 23.4857L114.289 23.8443C111.779 24.4819 110.424 25.8765 110.424 28.6259C110.424 30.7378 111.301 31.9332 112.735 31.9332C114.449 31.9332 115.724 30.2597 115.764 27.5899V23.4857ZM137.651 27.4305L138.01 27.5102C137.651 31.4551 136.097 34.4834 132.232 34.4834C129.004 34.4834 126.892 32.5309 126.932 28.2673L126.972 15.5163H124.94V15.1178C128.367 14.3209 130.997 11.6113 132.033 7.62661H132.391V14.4803H137.531L137.332 15.5163H132.391V28.347C132.391 30.6183 133.108 31.6941 134.543 31.6941C136.137 31.6941 137.213 30.2198 137.651 27.4305ZM147.363 14.8389C145.609 14.8389 144.534 15.9945 144.534 17.5485C144.534 19.3018 145.41 20.1385 148.797 21.2941C153.26 22.8481 155.213 24.6811 155.213 28.1478C155.213 32.1723 152.025 34.4834 148.12 34.4834C145.649 34.4834 144.215 33.567 142.98 33.567C142.183 33.567 141.665 34.0053 141.186 34.4834L140.788 26.9524H140.868C142.701 31.1761 145.131 33.7662 148.08 33.7662C150.032 33.7662 151.308 32.5309 151.308 30.5784C151.308 28.5064 149.793 27.7891 147.004 26.7531C142.82 25.2788 140.947 23.4857 140.947 20.019C140.947 16.3929 143.856 14.0818 147.283 14.0818C149.514 14.0818 150.71 15.0381 151.985 15.0381C152.742 15.0381 153.26 14.6795 153.898 14.0818V20.6566H153.818C152.344 17.2696 149.993 14.8389 147.363 14.8389ZM171.032 26.275V18.9033C171.032 16.2335 170.674 15.4765 169.08 14.56V14.4803H176.531V29.8612C176.531 32.4512 176.93 33.1685 178.444 34.0053V34.085H171.032V29.3033C170.196 32.6106 168.004 34.4834 165.016 34.4834C161.589 34.4834 159.636 32.0528 159.636 28.3072V18.9033C159.636 16.2335 159.278 15.4765 157.684 14.56V14.4803H165.095V28.2275C165.095 30.0206 165.812 31.6145 167.645 31.6145C169.558 31.6145 171.032 29.8612 171.032 26.275ZM191.277 25.2788V10.2964L182.192 25.2788H191.277ZM191.277 29.2635V26.3945H180.279V26.275L192.751 5.95304H196.975V25.2788H198.051C200.322 25.2788 200.761 24.7608 201.797 22.5294H201.876V29.1838H201.797C200.761 26.9524 200.322 26.3945 198.051 26.3945H196.975V29.2635C196.975 31.8934 197.334 33.0091 199.167 34.0053V34.085H189.086V34.0053C190.879 33.0091 191.277 31.8934 191.277 29.2635ZM217.278 26.275V18.9033C217.278 16.2335 216.92 15.4765 215.326 14.56V14.4803H222.777V29.8612C222.777 32.4512 223.175 33.1685 224.69 34.0053V34.085H217.278V29.3033C216.441 32.6106 214.25 34.4834 211.261 34.4834C207.834 34.4834 205.882 32.0528 205.882 28.3072V18.9033C205.882 16.2335 205.523 15.4765 203.929 14.56V14.4803H211.341V28.2275C211.341 30.0206 212.058 31.6145 213.891 31.6145C215.804 31.6145 217.278 29.8612 217.278 26.275Z" fill="#E9E9E9"/>
<defs>
<clipPath id="clip0_837_174">
<rect width="46.697" height="46" fill="white"/>
</clipPath>
</defs>
</svg>
